<svg width="40" height="40" viewBox="0 0 40 40" fill="none" xmlns="http://www.w3.org/2000/svg">
<path d="M0 8.42237C0 3.77083 3.80419 0 8.4969 0H31.5031C36.1958 0 40 3.77082 40 8.42237V31.5776C40 36.2292 36.1958 40 31.5031 40H8.4969C3.80419 40 0 36.2292 0 31.5776V8.42237Z" fill="#1574D0"/>
<ellipse cx="27.9646" cy="34.0351" rx="1.41593" ry="1.40351" fill="white"/>
<path fill-rule="evenodd" clip-rule="evenodd" d="M20.177 6.66667C21.0291 6.66667 21.8585 6.76294 22.6548 6.94511V14.0348C22.0632 13.5944 21.3278 13.3333 20.5309 13.3333C18.5759 13.3333 16.9911 14.9043 16.9911 16.8421V27.5846C16.9911 27.5943 16.9911 27.6039 16.9911 27.6135C16.9911 27.6232 16.9911 27.6328 16.9911 27.6424V27.9555C16.9881 27.9547 16.9851 27.9538 16.9822 27.9529C16.742 32.4423 11.7367 33.5784 9.20354 33.5784V17.789C9.20446 17.7894 9.20538 17.7899 9.2063 17.7903C9.20446 17.7084 9.20354 17.6262 9.20354 17.5439C9.20354 11.5366 14.1165 6.66667 20.177 6.66667ZM24.0707 16.8421L24.0707 16.8421V7.37131C28.2091 8.92854 31.1504 12.8957 31.1504 17.5439C31.1504 23.5512 26.2375 28.4211 20.177 28.4211C19.5744 28.4211 18.9832 28.3729 18.407 28.2803V19.6494C18.9986 20.0899 19.734 20.3509 20.5309 20.3509C22.4859 20.3509 24.0707 18.78 24.0707 16.8421Z" fill="#F5F5F5"/>
</svg>
